<svg width="32" height="36" viewBox="0 0 32 36" fill="none" xmlns="http://www.w3.org/2000/svg">
<path d="M31.2597 3.44053L9.38774 0C9.38774 0 9.38774 0 9.33859 0C9.28944 0 9.24029 0 9.24029 0C9.19114 0 9.19114 0 9.14199 0C9.09284 0 9.04369 0.0491502 9.04369 0.0491502C9.04369 0.0491502 8.99454 0.0491504 8.99454 0.0983009L0.147452 8.94539C0.0983015 8.99454 0.0983013 8.99454 0.0983013 9.04369L0.0491507 9.09284C1.86762e-07 9.14199 0 9.24029 0 9.28944L0 31.1614C0 31.2106 1.86762e-07 31.2597 0.0491507 31.358V31.4072C0.0491507 31.4563 0.0983015 31.5055 0.147452 31.5055C0.147452 31.5055 0.196603 31.5055 0.196603 31.5546C0.245753 31.6038 0.245753 31.6038 0.294903 31.6038C0.294903 31.6038 0.344054 31.6038 0.393204 31.6529H0.442355L22.3143 35.0934C22.3635 35.0934 22.3635 35.0934 22.4126 35.0934C22.4618 35.0934 22.5109 35.0934 22.6092 35.0443C22.6092 35.0443 22.6584 35.0443 22.6584 34.9951C22.7075 34.9951 22.7075 34.946 22.7567 34.946L31.6038 26.0989C31.6529 26.0498 31.6529 26.0498 31.6529 26.0006L31.7021 25.9515C31.7512 25.9023 31.7512 25.804 31.7512 25.7548V3.93204C31.6529 3.68629 31.5055 3.48968 31.2597 3.44053ZM8.84709 1.67112V10.125L1.52367 8.99454L8.84709 1.67112ZM0.98301 9.87925L8.84709 11.108L8.84709 22.1177L0.98301 29.9818L0.98301 9.87925ZM21.8228 34.0613L1.52367 30.8173L9.48604 22.855L21.8228 24.821L21.8228 34.0613ZM21.8228 23.7888L9.78095 21.872L9.78095 11.3046L21.8228 13.2215V23.7888ZM22.2652 12.2385L9.8301 10.2725V1.03216L30.2275 4.27609L22.2652 12.2385ZM22.8058 33.4223L22.8058 24.9684L30.1292 26.0989L22.8058 33.4223ZM30.6699 25.2142L22.8058 23.9854V13.074L30.6699 5.20995V25.2142Z" fill="#FF3B77"/>
</svg>
