<svg width="21" height="12" viewBox="0 0 21 12" fill="none" xmlns="http://www.w3.org/2000/svg">
<path d="M19.342 4.09547C17.225 6.91517 16.997 6.65439 18.7394 8.28427C20.4167 9.84896 20.775 10.5987 20.8239 10.6965C20.8239 10.6965 21.5241 11.9189 20.0422 11.9352L17.2413 11.9841C16.6387 12.0982 15.8408 11.5603 15.8408 11.5603C14.7986 10.8269 13.8053 8.96883 13.0399 9.19701C13.0399 9.19701 12.2582 9.44149 12.2745 11.1366C12.2908 11.4951 12.1117 11.6907 12.1117 11.6907C12.1117 11.6907 11.9163 11.9026 11.5254 11.9352H10.2715C7.50317 12.1145 5.0605 9.55558 5.0605 9.55558C5.0605 9.55558 2.40613 6.80108 0.0611684 1.29206C-0.0853917 0.933489 0.0774528 0.754202 0.0774528 0.754202C0.0774528 0.754202 0.240297 0.542317 0.696262 0.542317L3.6926 0.526018C3.96944 0.574914 4.18114 0.721604 4.18114 0.721604C4.18114 0.721604 4.36027 0.835696 4.44169 1.06388C4.93022 2.28629 5.56532 3.41092 5.56532 3.41092C6.65637 5.66016 7.40546 6.05133 7.82885 5.82315C7.82885 5.82315 8.38253 5.48087 8.26853 2.75896C8.21968 1.78103 7.95913 1.32466 7.95913 1.32466C7.71486 0.982386 7.24261 0.884593 7.03092 0.851995C6.86807 0.835696 7.14491 0.428225 7.50317 0.265236C8.02427 0.00445426 8.96877 -0.0118446 10.1087 0.00445427C10.988 0.0207531 11.2486 0.0696497 11.5906 0.151144C12.6328 0.395627 12.2745 1.37356 12.2745 3.688C12.2745 4.43774 12.128 5.46457 12.6653 5.80685C12.8933 5.95354 13.4633 5.82315 14.8637 3.44351C14.8637 3.44351 15.5151 2.30259 16.0362 0.982386C16.1176 0.737903 16.3131 0.64011 16.3131 0.64011C16.3131 0.64011 16.4922 0.542317 16.7365 0.574914L19.8631 0.558615C20.8076 0.444523 20.9704 0.868294 20.9704 0.868294C21.1333 1.32466 20.6284 2.36779 19.342 4.09547Z" fill="#FE5387"/>
</svg>
