<svg width="32" height="32" viewBox="0 0 32 32" fill="none" xmlns="http://www.w3.org/2000/svg">
<g clip-path="url(#clip0_142_960)">
<circle cx="16" cy="16" r="16" fill="white"/>
<path d="M24.4209 15.4129C22.4048 17.7626 22.1876 17.5453 23.8471 18.9036C25.4445 20.2075 25.7857 20.8323 25.8322 20.9138C25.8322 20.9138 26.4991 21.9324 25.0878 21.946L22.4203 21.9868C21.8464 22.0818 21.0865 21.6336 21.0865 21.6336C20.0939 21.0224 19.1479 19.474 18.4189 19.6642C18.4189 19.6642 17.6745 19.8679 17.69 21.2805C17.7055 21.5793 17.5349 21.7423 17.5349 21.7423C17.5349 21.7423 17.3488 21.9188 16.9766 21.946H15.7824C13.1459 22.0954 10.8195 19.963 10.8195 19.963C10.8195 19.963 8.29155 17.6676 6.05826 13.0767C5.91867 12.7779 6.07376 12.6285 6.07376 12.6285C6.07376 12.6285 6.22885 12.4519 6.66311 12.4519L9.51676 12.4383C9.78042 12.4791 9.98204 12.6013 9.98204 12.6013C9.98204 12.6013 10.1526 12.6964 10.2302 12.8866C10.6954 13.9052 11.3003 14.8424 11.3003 14.8424C12.3394 16.7168 13.0528 17.0428 13.4561 16.8526C13.4561 16.8526 13.9834 16.5674 13.8748 14.2991C13.8283 13.4842 13.5801 13.1039 13.5801 13.1039C13.3475 12.8187 12.8977 12.7372 12.6961 12.71C12.541 12.6964 12.8047 12.3569 13.1459 12.221C13.6422 12.0037 14.5417 11.9901 15.6273 12.0037C16.4648 12.0173 16.7129 12.058 17.0386 12.126C18.0312 12.3297 17.69 13.1446 17.69 15.0733C17.69 15.6981 17.5504 16.5538 18.0622 16.839C18.2794 16.9613 18.8222 16.8526 20.1559 14.8696C20.1559 14.8696 20.7763 13.9188 21.2726 12.8187C21.3501 12.6149 21.5362 12.5334 21.5362 12.5334C21.5362 12.5334 21.7068 12.4519 21.9395 12.4791L24.9172 12.4655C25.8167 12.3704 25.9718 12.7236 25.9718 12.7236C26.1269 13.1039 25.6461 13.9732 24.4209 15.4129Z" fill="#FE5387"/>
</g>
<defs>
<clipPath id="clip0_142_960">
<rect width="32" height="32" fill="white"/>
</clipPath>
</defs>
</svg>
